{
    "asset" : {
        "generator" : "Khronos glTF Blender I/O v1.5.17",
        "version" : "2.0"
    },
    "scene" : 0,
    "scenes" : [
        {
            "name" : "Scene",
            "nodes" : [
                0
            ]
        }
    ],
    "nodes" : [
        {
            "mesh" : 0,
            "name" : "Shrek",
            "rotation" : [
                0.7071068286895752,
                0,
                0,
                0.7071067094802856
            ]
        }
    ],
    "materials" : [
        {
            "doubleSided" : true,
            "name" : "08___Default",
            "pbrMetallicRoughness" : {
                "baseColorTexture" : {
                    "index" : 0
                },
                "metallicFactor" : 0,
                "roughnessFactor" : 0.8945907354354858
            }
        },
        {
            "doubleSided" : true,
            "name" : "02___Default",
            "pbrMetallicRoughness" : {
                "baseColorTexture" : {
                    "index" : 1
                },
                "metallicFactor" : 0,
                "roughnessFactor" : 0.8945907354354858
            }
        }
    ],
    "meshes" : [
        {
            "name" : "Shrek",
            "primitives" : [
                {
                    "attributes" : {
                        "POSITION" : 0,
                        "NORMAL" : 1,
                        "TEXCOORD_0" : 2
                    },
                    "indices" : 3,
                    "material" : 0
                },
                {
                    "attributes" : {
                        "POSITION" : 4,
                        "NORMAL" : 5,
                        "TEXCOORD_0" : 6
                    },
                    "indices" : 7,
                    "material" : 1
                }
            ]
        }
    ],
    "textures" : [
        {
            "sampler" : 0,
            "source" : 0
        },
        {
            "sampler" : 0,
            "source" : 1
        }
    ],
    "images" : [
        {
            "bufferView" : 4,
            "mimeType" : "image/png",
            "name" : "Shrek_Head_Legs"
        },
        {
            "bufferView" : 9,
            "mimeType" : "image/png",
            "name" : "Shrek_Body"
        }
    ],
    "accessors" : [
        {
            "bufferView" : 0,
            "componentType" : 5126,
            "count" : 3276,
            "max" : [
                65.98560333251953,
                17.029300689697266,
                11.309700012207031
            ],
            "min" : [
                -73.71209716796875,
                -19.95870018005371,
                -104.37560272216797
            ],
            "type" : "VEC3"
        },
        {
            "bufferView" : 1,
            "componentType" : 5126,
            "count" : 3276,
            "type" : "VEC3"
        },
        {
            "bufferView" : 2,
            "componentType" : 5126,
            "count" : 3276,
            "type" : "VEC2"
        },
        {
            "bufferView" : 3,
            "componentType" : 5123,
            "count" : 3276,
            "type" : "SCALAR"
        },
        {
            "bufferView" : 5,
            "componentType" : 5126,
            "count" : 3720,
            "max" : [
                65.96209716796875,
                18.12969970703125,
                -23.2278995513916
            ],
            "min" : [
                -73.74479675292969,
                -23.6387996673584,
                -88.7522964477539
            ],
            "type" : "VEC3"
        },
        {
            "bufferView" : 6,
            "componentType" : 5126,
            "count" : 3720,
            "type" : "VEC3"
        },
        {
            "bufferView" : 7,
            "componentType" : 5126,
            "count" : 3720,
            "type" : "VEC2"
        },
        {
            "bufferView" : 8,
            "componentType" : 5123,
            "count" : 3720,
            "type" : "SCALAR"
        }
    ],
    "bufferViews" : [
        {
            "buffer" : 0,
            "byteLength" : 39312,
            "byteOffset" : 0
        },
        {
            "buffer" : 0,
            "byteLength" : 39312,
            "byteOffset" : 39312
        },
        {
            "buffer" : 0,
            "byteLength" : 26208,
            "byteOffset" : 78624
        },
        {
            "buffer" : 0,
            "byteLength" : 6552,
            "byteOffset" : 104832
        },
        {
            "buffer" : 0,
            "byteLength" : 93105,
            "byteOffset" : 111384
        },
        {
            "buffer" : 0,
            "byteLength" : 44640,
            "byteOffset" : 204492
        },
        {
            "buffer" : 0,
            "byteLength" : 44640,
            "byteOffset" : 249132
        },
        {
            "buffer" : 0,
            "byteLength" : 29760,
            "byteOffset" : 293772
        },
        {
            "buffer" : 0,
            "byteLength" : 7440,
            "byteOffset" : 323532
        },
        {
            "buffer" : 0,
            "byteLength" : 59980,
            "byteOffset" : 330972
        }
    ],
    "samplers" : [
        {
            "magFilter" : 9729,
            "minFilter" : 9987
        }
    ],
    "buffers" : [
        {
            "byteLength" : 390952,
            "uri" : "data:application/octet-stream;base64,"
        }
    ]
}
